<mxfile host="app.diagrams.net" agent="Mozilla/5.0 (Windows NT 10.0; Win64; x64) AppleWebKit/537.36 (KHTML, like Gecko) Chrome/131.0.0.0 Safari/537.36" version="26.0.6">
  <diagram name="Page-1" id="fWQKG5bwVs9Gb3jGFLF4">
    <mxGraphModel dx="880" dy="1641" grid="1" gridSize="10" guides="1" tooltips="1" connect="1" arrows="1" fold="1" page="1" pageScale="1" pageWidth="827" pageHeight="1169" math="0" shadow="0">
      <root>
        <mxCell id="0" />
        <mxCell id="1" parent="0" />
        <mxCell id="Yd16Ak2MNRer9Ac4nSbC-1" value="" style="rounded=1;whiteSpace=wrap;html=1;" parent="1" vertex="1">
          <mxGeometry x="160" y="90" width="120" height="40" as="geometry" />
        </mxCell>
        <mxCell id="Yd16Ak2MNRer9Ac4nSbC-2" value="" style="rounded=1;whiteSpace=wrap;html=1;" parent="1" vertex="1">
          <mxGeometry x="160" y="160" width="120" height="30" as="geometry" />
        </mxCell>
        <mxCell id="Yd16Ak2MNRer9Ac4nSbC-3" value="" style="rounded=1;whiteSpace=wrap;html=1;" parent="1" vertex="1">
          <mxGeometry x="160" y="210" width="120" height="30" as="geometry" />
        </mxCell>
        <mxCell id="Yd16Ak2MNRer9Ac4nSbC-4" value="" style="rounded=1;whiteSpace=wrap;html=1;" parent="1" vertex="1">
          <mxGeometry x="160" y="260" width="120" height="30" as="geometry" />
        </mxCell>
        <mxCell id="Yd16Ak2MNRer9Ac4nSbC-5" value="" style="rounded=1;whiteSpace=wrap;html=1;" parent="1" vertex="1">
          <mxGeometry x="500" y="330" width="120" height="40" as="geometry" />
        </mxCell>
        <mxCell id="Yd16Ak2MNRer9Ac4nSbC-6" value="" style="endArrow=none;dashed=1;html=1;rounded=0;" parent="1" edge="1">
          <mxGeometry width="50" height="50" relative="1" as="geometry">
            <mxPoint x="300" y="540" as="sourcePoint" />
            <mxPoint x="300" y="-10" as="targetPoint" />
          </mxGeometry>
        </mxCell>
        <mxCell id="Yd16Ak2MNRer9Ac4nSbC-8" value="" style="endArrow=none;dashed=1;html=1;rounded=0;" parent="1" edge="1">
          <mxGeometry width="50" height="50" relative="1" as="geometry">
            <mxPoint x="480" y="540" as="sourcePoint" />
            <mxPoint x="480" y="-10" as="targetPoint" />
          </mxGeometry>
        </mxCell>
        <mxCell id="0Kz7llDu5IJaO-IOUjN6-20" style="edgeStyle=orthogonalEdgeStyle;rounded=0;orthogonalLoop=1;jettySize=auto;html=1;entryX=0.5;entryY=0;entryDx=0;entryDy=0;" edge="1" parent="1" source="Yd16Ak2MNRer9Ac4nSbC-9" target="Yd16Ak2MNRer9Ac4nSbC-10">
          <mxGeometry relative="1" as="geometry" />
        </mxCell>
        <mxCell id="Yd16Ak2MNRer9Ac4nSbC-9" value="" style="rounded=1;whiteSpace=wrap;html=1;" parent="1" vertex="1">
          <mxGeometry x="330" y="395" width="120" height="40" as="geometry" />
        </mxCell>
        <mxCell id="Yd16Ak2MNRer9Ac4nSbC-10" value="" style="rounded=1;whiteSpace=wrap;html=1;" parent="1" vertex="1">
          <mxGeometry x="160" y="450" width="120" height="40" as="geometry" />
        </mxCell>
        <mxCell id="Yd16Ak2MNRer9Ac4nSbC-11" value="view suggested selfcare activities" style="text;html=1;align=center;verticalAlign=middle;whiteSpace=wrap;rounded=0;" parent="1" vertex="1">
          <mxGeometry x="170" y="95" width="100" height="30" as="geometry" />
        </mxCell>
        <mxCell id="0Kz7llDu5IJaO-IOUjN6-6" style="edgeStyle=orthogonalEdgeStyle;rounded=0;orthogonalLoop=1;jettySize=auto;html=1;exitX=0.5;exitY=1;exitDx=0;exitDy=0;entryX=0.5;entryY=0;entryDx=0;entryDy=0;" edge="1" parent="1" source="Yd16Ak2MNRer9Ac4nSbC-12" target="Yd16Ak2MNRer9Ac4nSbC-13">
          <mxGeometry relative="1" as="geometry" />
        </mxCell>
        <mxCell id="Yd16Ak2MNRer9Ac4nSbC-12" value="set reminders" style="text;html=1;align=center;verticalAlign=middle;whiteSpace=wrap;rounded=0;" parent="1" vertex="1">
          <mxGeometry x="180" y="160" width="80" height="30" as="geometry" />
        </mxCell>
        <mxCell id="0Kz7llDu5IJaO-IOUjN6-7" style="edgeStyle=orthogonalEdgeStyle;rounded=0;orthogonalLoop=1;jettySize=auto;html=1;exitX=0.5;exitY=1;exitDx=0;exitDy=0;entryX=0.5;entryY=0;entryDx=0;entryDy=0;" edge="1" parent="1" source="Yd16Ak2MNRer9Ac4nSbC-13" target="Yd16Ak2MNRer9Ac4nSbC-14">
          <mxGeometry relative="1" as="geometry" />
        </mxCell>
        <mxCell id="Yd16Ak2MNRer9Ac4nSbC-13" value="Receive notifications" style="text;html=1;align=center;verticalAlign=middle;whiteSpace=wrap;rounded=0;" parent="1" vertex="1">
          <mxGeometry x="155" y="210" width="130" height="30" as="geometry" />
        </mxCell>
        <mxCell id="0Kz7llDu5IJaO-IOUjN6-8" style="edgeStyle=orthogonalEdgeStyle;rounded=0;orthogonalLoop=1;jettySize=auto;html=1;exitX=0.5;exitY=1;exitDx=0;exitDy=0;" edge="1" parent="1" source="Yd16Ak2MNRer9Ac4nSbC-14">
          <mxGeometry relative="1" as="geometry">
            <mxPoint x="550" y="330" as="targetPoint" />
          </mxGeometry>
        </mxCell>
        <mxCell id="Yd16Ak2MNRer9Ac4nSbC-14" value="Mark as completed" style="text;html=1;align=center;verticalAlign=middle;whiteSpace=wrap;rounded=0;" parent="1" vertex="1">
          <mxGeometry x="165" y="260" width="110" height="30" as="geometry" />
        </mxCell>
        <mxCell id="Yd16Ak2MNRer9Ac4nSbC-15" value="Track user progress reports" style="text;html=1;align=center;verticalAlign=middle;whiteSpace=wrap;rounded=0;" parent="1" vertex="1">
          <mxGeometry x="342" y="400" width="96" height="30" as="geometry" />
        </mxCell>
        <mxCell id="Yd16Ak2MNRer9Ac4nSbC-16" value="Review user engagement data" style="text;html=1;align=center;verticalAlign=middle;whiteSpace=wrap;rounded=0;" parent="1" vertex="1">
          <mxGeometry x="510" y="335" width="100" height="30" as="geometry" />
        </mxCell>
        <mxCell id="Yd16Ak2MNRer9Ac4nSbC-17" value="View progress reports" style="text;html=1;align=center;verticalAlign=middle;whiteSpace=wrap;rounded=0;" parent="1" vertex="1">
          <mxGeometry x="180" y="455" width="80" height="30" as="geometry" />
        </mxCell>
        <mxCell id="0Kz7llDu5IJaO-IOUjN6-3" style="edgeStyle=orthogonalEdgeStyle;rounded=0;orthogonalLoop=1;jettySize=auto;html=1;exitX=0.5;exitY=1;exitDx=0;exitDy=0;entryX=0.5;entryY=0;entryDx=0;entryDy=0;" edge="1" parent="1" source="0Kz7llDu5IJaO-IOUjN6-1" target="Yd16Ak2MNRer9Ac4nSbC-1">
          <mxGeometry relative="1" as="geometry" />
        </mxCell>
        <mxCell id="0Kz7llDu5IJaO-IOUjN6-1" value="" style="ellipse;html=1;shape=startState;fillColor=#000000;strokeColor=#ff0000;" vertex="1" parent="1">
          <mxGeometry x="205" y="40" width="30" height="30" as="geometry" />
        </mxCell>
        <mxCell id="0Kz7llDu5IJaO-IOUjN6-21" value="" style="ellipse;html=1;shape=endState;fillColor=#000000;strokeColor=#ff0000;" vertex="1" parent="1">
          <mxGeometry x="203.75" y="510" width="32.5" height="30" as="geometry" />
        </mxCell>
        <mxCell id="0Kz7llDu5IJaO-IOUjN6-23" style="edgeStyle=orthogonalEdgeStyle;rounded=0;orthogonalLoop=1;jettySize=auto;html=1;" edge="1" parent="1">
          <mxGeometry relative="1" as="geometry">
            <mxPoint x="219.5" y="515" as="targetPoint" />
            <mxPoint x="219.5" y="490" as="sourcePoint" />
          </mxGeometry>
        </mxCell>
        <mxCell id="0Kz7llDu5IJaO-IOUjN6-25" value="&lt;font style=&quot;font-size: 15px;&quot;&gt;&lt;b&gt;User&lt;/b&gt;&lt;/font&gt;" style="text;html=1;align=center;verticalAlign=middle;whiteSpace=wrap;rounded=0;" vertex="1" parent="1">
          <mxGeometry x="190" width="60" height="30" as="geometry" />
        </mxCell>
        <mxCell id="0Kz7llDu5IJaO-IOUjN6-26" value="&lt;font style=&quot;font-size: 15px;&quot;&gt;&lt;b&gt;User Caretaker&lt;/b&gt;&lt;/font&gt;" style="text;html=1;align=center;verticalAlign=middle;whiteSpace=wrap;rounded=0;" vertex="1" parent="1">
          <mxGeometry x="330" width="122" height="30" as="geometry" />
        </mxCell>
        <mxCell id="0Kz7llDu5IJaO-IOUjN6-27" value="&lt;font style=&quot;font-size: 15px;&quot;&gt;&lt;b&gt;Admin&lt;/b&gt;&lt;/font&gt;" style="text;html=1;align=center;verticalAlign=middle;whiteSpace=wrap;rounded=0;" vertex="1" parent="1">
          <mxGeometry x="540" width="60" height="30" as="geometry" />
        </mxCell>
        <mxCell id="0Kz7llDu5IJaO-IOUjN6-33" value="" style="endArrow=none;html=1;rounded=0;exitX=0.417;exitY=1;exitDx=0;exitDy=0;exitPerimeter=0;" edge="1" parent="1" source="Yd16Ak2MNRer9Ac4nSbC-5">
          <mxGeometry width="50" height="50" relative="1" as="geometry">
            <mxPoint x="390" y="450" as="sourcePoint" />
            <mxPoint x="550" y="380" as="targetPoint" />
          </mxGeometry>
        </mxCell>
        <mxCell id="0Kz7llDu5IJaO-IOUjN6-34" value="" style="endArrow=classic;html=1;rounded=0;" edge="1" parent="1">
          <mxGeometry width="50" height="50" relative="1" as="geometry">
            <mxPoint x="389.5" y="380" as="sourcePoint" />
            <mxPoint x="389.5" y="400" as="targetPoint" />
          </mxGeometry>
        </mxCell>
        <mxCell id="0Kz7llDu5IJaO-IOUjN6-35" value="" style="endArrow=none;html=1;rounded=0;" edge="1" parent="1">
          <mxGeometry width="50" height="50" relative="1" as="geometry">
            <mxPoint x="390" y="380" as="sourcePoint" />
            <mxPoint x="550" y="380" as="targetPoint" />
          </mxGeometry>
        </mxCell>
        <mxCell id="0Kz7llDu5IJaO-IOUjN6-36" style="edgeStyle=orthogonalEdgeStyle;rounded=0;orthogonalLoop=1;jettySize=auto;html=1;" edge="1" parent="1">
          <mxGeometry relative="1" as="geometry">
            <mxPoint x="219.5" y="160" as="targetPoint" />
            <mxPoint x="219.5" y="135" as="sourcePoint" />
          </mxGeometry>
        </mxCell>
      </root>
    </mxGraphModel>
  </diagram>
</mxfile>
